<svg xmlns="http://www.w3.org/2000/svg" viewBox="0 0 250 250"><defs><style>.cls-1{fill:#51af40;}.cls-2{fill:#fff;}</style></defs><g id="Camada_2" data-name="Camada 2"><g id="Camada_1-2" data-name="Camada 1"><circle class="cls-1" cx="125" cy="125" r="125"/><path class="cls-2" d="M117.36,60.09A3.05,3.05,0,0,0,114.68,63v12.4A56.32,56.32,0,0,0,97.45,83L88.68,74.2a3.08,3.08,0,0,0-4.16,0L74.18,84.52a3.06,3.06,0,0,0,0,4.2l8.73,8.71c-3.13,5.23-4.87,11.39-6,17.24H63a3.07,3.07,0,0,0-3,3v14.76a3.07,3.07,0,0,0,3,3H76.9c1.14,5.83,2.9,12,6,17.19l-8.73,8.72a3.05,3.05,0,0,0,0,4.19l10.34,10.33a3.08,3.08,0,0,0,4.16,0L97.45,167a56.3,56.3,0,0,0,17.23,7.51V187a3.06,3.06,0,0,0,2.95,2.95h14.74a3.06,3.06,0,0,0,2.95-2.95V174.51A56.54,56.54,0,0,0,152.55,167l8.77,8.76a3.08,3.08,0,0,0,4.16,0l10.34-10.33a3.05,3.05,0,0,0,0-4.19l-8.73-8.72c3.11-5.21,4.87-11.36,6-17.19H187a3.07,3.07,0,0,0,3-3V117.62a3.07,3.07,0,0,0-3-3H173.1c-1.14-5.85-2.88-12-6-17.24l8.73-8.71a3.06,3.06,0,0,0,0-4.2L165.48,74.2a3.08,3.08,0,0,0-4.16,0L152.55,83a56.32,56.32,0,0,0-17.23-7.52V63a3.06,3.06,0,0,0-2.95-2.95Zm3.23,5.9h8.82v11.8a3.05,3.05,0,0,0,2.45,2.91A52.31,52.31,0,0,1,151.35,89a3,3,0,0,0,3.78-.32l8.27-8.25,6.14,6.17-8.22,8.21a3.05,3.05,0,0,0-.32,3.83c3.51,4.92,5.72,12.58,6.88,19.4a3.05,3.05,0,0,0,2.91,2.49h13.3v8.86h-13.3a3.05,3.05,0,0,0-2.91,2.44c-1.16,6.82-3.37,14.49-6.88,19.41a3,3,0,0,0,.32,3.82l8.22,8.26-6.14,6.13-8.27-8.25a3,3,0,0,0-3.78-.33,52.33,52.33,0,0,1-19.49,8.35,3.06,3.06,0,0,0-2.45,3V184h-8.82v-11.8a3.06,3.06,0,0,0-2.45-3,52.33,52.33,0,0,1-19.49-8.35,3,3,0,0,0-3.78.33l-8.27,8.25-6.19-6.13,8.27-8.26a3,3,0,0,0,.32-3.82c-3.51-4.92-5.72-12.59-6.88-19.41a3.05,3.05,0,0,0-2.91-2.44H65.91v-8.86h13.3a3.05,3.05,0,0,0,2.91-2.49c1.16-6.82,3.37-14.48,6.88-19.4a3.05,3.05,0,0,0-.32-3.83l-8.27-8.21,6.19-6.17,8.27,8.25a3,3,0,0,0,3.78.32,52.31,52.31,0,0,1,19.49-8.34,3.05,3.05,0,0,0,2.45-2.91ZM125,89.59A35.48,35.48,0,0,0,89.56,125a40.24,40.24,0,0,0,1.52,10.14A35.44,35.44,0,1,0,125,89.59Zm0,5.9a29.47,29.47,0,0,1,11,2.13L127.61,112a13,13,0,0,0-2.59-.28,13.31,13.31,0,0,0-13.2,12.13l-15.94,6.08A29.54,29.54,0,0,1,125,95.49Zm16.21,4.85a29.57,29.57,0,0,1,10,11l-15.43,5.94A13.14,13.14,0,0,0,133,114.4Zm12.15,16.45A29.4,29.4,0,0,1,125,154.5a29.39,29.39,0,0,1-13.76-3.41l9.79-13.41a13.07,13.07,0,0,0,4,.6A13.33,13.33,0,0,0,138.32,125a13,13,0,0,0-.23-2.35Zm-28.36.83a7.38,7.38,0,1,1-7.39,7.38A7.34,7.34,0,0,1,125,117.62Zm-12.37,12.17a13.24,13.24,0,0,0,3.28,4.85l-9.61,13.18a29.57,29.57,0,0,1-8.87-12.17Z"/></g></g></svg>