<svg xmlns="http://www.w3.org/2000/svg" viewBox="0 0 250 250"><defs><style>.cls-1{fill:#51af40;}.cls-2{fill:#fff;}</style></defs><g id="Camada_2" data-name="Camada 2"><g id="Camada_1-2" data-name="Camada 1"><circle class="cls-1" cx="125" cy="125" r="125"/><path class="cls-2" d="M99.21,128.79a10.06,10.06,0,1,0,9.92,10.06A10,10,0,0,0,99.21,128.79Zm0,14.08a4,4,0,1,1,4-4A4.06,4.06,0,0,1,99.21,142.87Z"/><path class="cls-2" d="M175.67,105.89H115.23a3.08,3.08,0,0,0-3,3.1v5.1a27.3,27.3,0,0,0-13.13-3.4c-15.26-.16-27.78,12.53-27.78,28.16A28,28,0,0,0,99.21,167a27.26,27.26,0,0,0,13.12-3.4v5.1a3.09,3.09,0,0,0,3,3.1h60.45a3.09,3.09,0,0,0,3-3.1V108.83A3.31,3.31,0,0,0,175.67,105.89ZM99.21,161a22.13,22.13,0,0,1,0-44.26,21.69,21.69,0,0,1,13.12,4.49v35.43A22.64,22.64,0,0,1,99.21,161Zm73.41,4.79H118.28V111.93h54.34Z"/><path class="cls-2" d="M132,148.6a3,3,0,1,0,4.27-4.34l-5.8-5.88,5.8-5.88a3,3,0,0,0,0-4.33,2.92,2.92,0,0,0-4.27,0l-7.94,8.05a3,3,0,0,0,0,4.33Z"/><path class="cls-2" d="M154.61,148.6a2.92,2.92,0,0,0,4.27,0l7.94-8a3,3,0,0,0,0-4.33l-7.94-8.05a2.92,2.92,0,0,0-4.27,0,3,3,0,0,0,0,4.33l5.8,5.88-5.8,5.88A3.34,3.34,0,0,0,154.61,148.6Z"/><path class="cls-2" d="M142.09,153.24c.31,0,.46.15.77.15a3,3,0,0,0,2.9-2.32l5.34-22.74a3.15,3.15,0,0,0-2.29-3.72,3,3,0,0,0-3.66,2.32l-5.34,22.75A3.3,3.3,0,0,0,142.09,153.24Z"/><ellipse class="cls-2" cx="69.75" cy="76.95" rx="3.82" ry="3.87"/><ellipse class="cls-2" cx="80.74" cy="76.95" rx="3.82" ry="3.87"/><ellipse class="cls-2" cx="91.57" cy="76.95" rx="3.82" ry="3.87"/><path class="cls-2" d="M191.7,60.09H58.3A5.83,5.83,0,0,0,52.5,66V184a5.83,5.83,0,0,0,5.8,5.88H191.7a5.83,5.83,0,0,0,5.8-5.88V66A5.83,5.83,0,0,0,191.7,60.09ZM191.55,66v22H58.3V66.12ZM58.45,183.88,58.3,94H191.55v89.74Z"/></g></g></svg>