<svg xmlns="http://www.w3.org/2000/svg" viewBox="0 0 250 250"><defs><style>.cls-1{fill:#51af40;}.cls-2{fill:#fff;}</style></defs><g id="Camada_2" data-name="Camada 2"><g id="Camada_1-2" data-name="Camada 1"><circle class="cls-1" cx="125" cy="125" r="125"/><path class="cls-2" d="M189.83,146.54l-9-22.38c-.42-.52-.56-1.28-2.08-1.41H142.93a2.24,2.24,0,1,0,0,4.47h.53l-10.76,17.91H66.22L77,127.22h30.09a2.24,2.24,0,1,0,0-4.47H75.7a2.53,2.53,0,0,0-1.93,1.09L60.33,146.22a2.23,2.23,0,0,0,.75,3.08,2.3,2.3,0,0,0,1.17.33H73.46v38a2.24,2.24,0,0,0,2.24,2.24H178.79a2.24,2.24,0,0,0,2.24-2.24v-38h6.72a2.25,2.25,0,0,0,2.08-3.09ZM77.94,169.77h26.89v6.71H77.94Zm0,11.19h29.13a2.24,2.24,0,0,0,2.25-2.24V167.53a2.24,2.24,0,0,0-2.25-2.24H77.94V149.63h56a2.26,2.26,0,0,0,1.92-1.08l9.28-15.49v52.38H77.94Zm98.61,4.48h-26.9V136.62l4.64,11.6a2.25,2.25,0,0,0,2.09,1.41h20.17ZM157.9,145.15l-7.17-17.91h26.53l7.17,17.91Z"/><path class="cls-2" d="M116,167.53a2.24,2.24,0,0,0-2.24,2.24v8.95a2.24,2.24,0,0,0,4.48,0v-8.95A2.24,2.24,0,0,0,116,167.53Z"/><path class="cls-2" d="M125,167.53a2.24,2.24,0,0,0-2.24,2.24v8.95a2.24,2.24,0,0,0,4.48,0v-8.95A2.24,2.24,0,0,0,125,167.53Z"/><path class="cls-2" d="M100,118.4a2.53,2.53,0,0,0,2.49-.89s3.51-5,7.84-5.35a7.66,7.66,0,0,1,6.16,3,2.25,2.25,0,0,0,1.71.87h13.71a2.25,2.25,0,0,0,1.68-.87,7.88,7.88,0,0,1,6.16-3c4.37.29,7.85,5.3,7.87,5.35a2.47,2.47,0,0,0,2.49.89,2.24,2.24,0,0,0,1.61-2.08c.36-14.28-7.13-18.64-11.2-20a32.66,32.66,0,0,0,.22-3.83c0-17.39-13.45-31.2-14.1-31.78a2.24,2.24,0,0,0-3.17,0h0c-.65.58-14.09,14.39-14.09,31.78a30.65,30.65,0,0,0,.24,3.83c-4.1,1.32-11.58,5.68-11.2,20A2.21,2.21,0,0,0,100,118.4Zm46.81-8a13.22,13.22,0,0,0-6.72-2.71,9.72,9.72,0,0,0-2.69.16,44,44,0,0,0,2.24-7C142.17,101.77,145.55,104.19,146.76,110.39ZM125,65.7c3.43,4.07,11.21,14.68,11.21,26.85a39.06,39.06,0,0,1-5.69,19h-11a39,39,0,0,1-5.69-19C113.8,80.38,121.57,69.77,125,65.7Zm-14.7,35.13a44,44,0,0,0,2.24,7,9.7,9.7,0,0,0-2.69-.16,13.22,13.22,0,0,0-6.72,2.71C104.45,104.19,107.84,101.77,110.3,100.83Z"/><path class="cls-2" d="M129.48,95.91a2.24,2.24,0,0,0,2.25-2.24v-9a2.24,2.24,0,0,0-2.25-2.24h-9a2.24,2.24,0,0,0-2.24,2.24v9a2.24,2.24,0,0,0,2.24,2.24Zm-6.72-9h4.48v4.47h-4.48Z"/><path class="cls-2" d="M122.76,122.77V134a2.24,2.24,0,1,0,4.48,0V122.77a2.24,2.24,0,0,0-4.48,0Z"/><path class="cls-2" d="M131.73,120.53v6.71a2.24,2.24,0,1,0,4.48,0v-6.71a2.24,2.24,0,0,0-4.48,0Z"/><path class="cls-2" d="M116,118.29a2.24,2.24,0,0,0-2.24,2.24v6.71a2.24,2.24,0,1,0,4.48,0v-6.71A2.24,2.24,0,0,0,116,118.29Z"/></g></g></svg>